<svg width="141" height="22" viewBox="0 0 141 22" fill="none" xmlns="http://www.w3.org/2000/svg">
<path d="M5.30297 2.04C6.76964 2.04 8.0563 2.32667 9.16297 2.9C10.283 3.47333 11.143 4.29333 11.743 5.36C12.3563 6.41333 12.663 7.64 12.663 9.04C12.663 10.44 12.3563 11.6667 11.743 12.72C11.143 13.76 10.283 14.5667 9.16297 15.14C8.0563 15.7133 6.76964 16 5.30297 16H0.422969V2.04H5.30297ZM5.20297 13.62C6.66964 13.62 7.80297 13.22 8.60297 12.42C9.40297 11.62 9.80297 10.4933 9.80297 9.04C9.80297 7.58667 9.40297 6.45333 8.60297 5.64C7.80297 4.81333 6.66964 4.4 5.20297 4.4H3.22297V13.62H5.20297ZM16.1789 3.6C15.6856 3.6 15.2722 3.44667 14.9389 3.14C14.6189 2.82 14.4589 2.42667 14.4589 1.96C14.4589 1.49333 14.6189 1.10667 14.9389 0.799999C15.2722 0.479999 15.6856 0.319999 16.1789 0.319999C16.6722 0.319999 17.0789 0.479999 17.3989 0.799999C17.7322 1.10667 17.8989 1.49333 17.8989 1.96C17.8989 2.42667 17.7322 2.82 17.3989 3.14C17.0789 3.44667 16.6722 3.6 16.1789 3.6ZM17.5589 4.92V16H14.7589V4.92H17.5589ZM24.5653 16.18C23.6586 16.18 22.8453 16.02 22.1253 15.7C21.4053 15.3667 20.832 14.92 20.4053 14.36C19.992 13.8 19.7653 13.18 19.7253 12.5H22.5453C22.5986 12.9267 22.8053 13.28 23.1653 13.56C23.5386 13.84 23.9986 13.98 24.5453 13.98C25.0786 13.98 25.492 13.8733 25.7853 13.66C26.092 13.4467 26.2453 13.1733 26.2453 12.84C26.2453 12.48 26.0586 12.2133 25.6853 12.04C25.3253 11.8533 24.7453 11.6533 23.9453 11.44C23.1186 11.24 22.4386 11.0333 21.9053 10.82C21.3853 10.6067 20.932 10.28 20.5453 9.84C20.172 9.4 19.9853 8.80667 19.9853 8.06C19.9853 7.44667 20.1586 6.88667 20.5053 6.38C20.8653 5.87333 21.372 5.47333 22.0253 5.18C22.692 4.88667 23.472 4.74 24.3653 4.74C25.6853 4.74 26.7386 5.07333 27.5253 5.74C28.312 6.39333 28.7453 7.28 28.8253 8.4H26.1453C26.1053 7.96 25.9186 7.61333 25.5853 7.36C25.2653 7.09333 24.832 6.96 24.2853 6.96C23.7786 6.96 23.3853 7.05333 23.1053 7.24C22.8386 7.42667 22.7053 7.68667 22.7053 8.02C22.7053 8.39333 22.892 8.68 23.2653 8.88C23.6386 9.06667 24.2186 9.26 25.0053 9.46C25.8053 9.66 26.4653 9.86667 26.9853 10.08C27.5053 10.2933 27.952 10.6267 28.3253 11.08C28.712 11.52 28.912 12.1067 28.9253 12.84C28.9253 13.48 28.7453 14.0533 28.3853 14.56C28.0386 15.0667 27.532 15.4667 26.8653 15.76C26.212 16.04 25.4453 16.18 24.5653 16.18ZM34.0238 6.52C34.3838 6.01333 34.8771 5.59333 35.5038 5.26C36.1438 4.91333 36.8704 4.74 37.6838 4.74C38.6304 4.74 39.4838 4.97333 40.2438 5.44C41.0171 5.90667 41.6238 6.57333 42.0638 7.44C42.5171 8.29333 42.7438 9.28667 42.7438 10.42C42.7438 11.5533 42.5171 12.56 42.0638 13.44C41.6238 14.3067 41.0171 14.98 40.2438 15.46C39.4838 15.94 38.6304 16.18 37.6838 16.18C36.8704 16.18 36.1504 16.0133 35.5238 15.68C34.9104 15.3467 34.4104 14.9267 34.0238 14.42V21.28H31.2238V4.92H34.0238V6.52ZM39.8838 10.42C39.8838 9.75333 39.7438 9.18 39.4638 8.7C39.1971 8.20667 38.8371 7.83333 38.3838 7.58C37.9438 7.32667 37.4638 7.2 36.9438 7.2C36.4371 7.2 35.9571 7.33333 35.5038 7.6C35.0638 7.85333 34.7038 8.22667 34.4238 8.72C34.1571 9.21333 34.0238 9.79333 34.0238 10.46C34.0238 11.1267 34.1571 11.7067 34.4238 12.2C34.7038 12.6933 35.0638 13.0733 35.5038 13.34C35.9571 13.5933 36.4371 13.72 36.9438 13.72C37.4638 13.72 37.9438 13.5867 38.3838 13.32C38.8371 13.0533 39.1971 12.6733 39.4638 12.18C39.7438 11.6867 39.8838 11.1 39.8838 10.42ZM47.5784 1.2V16H44.7784V1.2H47.5784ZM49.6248 10.42C49.6248 9.3 49.8448 8.30667 50.2848 7.44C50.7382 6.57333 51.3448 5.90667 52.1048 5.44C52.8782 4.97333 53.7382 4.74 54.6848 4.74C55.5115 4.74 56.2315 4.90667 56.8448 5.24C57.4715 5.57333 57.9715 5.99333 58.3448 6.5V4.92H61.1648V16H58.3448V14.38C57.9848 14.9 57.4848 15.3333 56.8448 15.68C56.2182 16.0133 55.4915 16.18 54.6648 16.18C53.7315 16.18 52.8782 15.94 52.1048 15.46C51.3448 14.98 50.7382 14.3067 50.2848 13.44C49.8448 12.56 49.6248 11.5533 49.6248 10.42ZM58.3448 10.46C58.3448 9.78 58.2115 9.2 57.9448 8.72C57.6782 8.22667 57.3182 7.85333 56.8648 7.6C56.4115 7.33333 55.9248 7.2 55.4048 7.2C54.8848 7.2 54.4048 7.32667 53.9648 7.58C53.5248 7.83333 53.1648 8.20667 52.8848 8.7C52.6182 9.18 52.4848 9.75333 52.4848 10.42C52.4848 11.0867 52.6182 11.6733 52.8848 12.18C53.1648 12.6733 53.5248 13.0533 53.9648 13.32C54.4182 13.5867 54.8982 13.72 55.4048 13.72C55.9248 13.72 56.4115 13.5933 56.8648 13.34C57.3182 13.0733 57.6782 12.7 57.9448 12.22C58.2115 11.7267 58.3448 11.14 58.3448 10.46ZM74.4995 4.92L67.6395 21.24H64.6595L67.0595 15.72L62.6195 4.92H65.7595L68.6195 12.66L71.5195 4.92H74.4995ZM92.7145 16H89.9145L83.5745 6.42V16H80.7745V2.02H83.5745L89.9145 11.62V2.02H92.7145V16ZM94.7616 10.42C94.7616 9.3 94.9816 8.30667 95.4216 7.44C95.8749 6.57333 96.4816 5.90667 97.2416 5.44C98.0149 4.97333 98.8749 4.74 99.8216 4.74C100.648 4.74 101.368 4.90667 101.982 5.24C102.608 5.57333 103.108 5.99333 103.482 6.5V4.92H106.302V16H103.482V14.38C103.122 14.9 102.622 15.3333 101.982 15.68C101.355 16.0133 100.628 16.18 99.8016 16.18C98.8682 16.18 98.0149 15.94 97.2416 15.46C96.4816 14.98 95.8749 14.3067 95.4216 13.44C94.9816 12.56 94.7616 11.5533 94.7616 10.42ZM103.482 10.46C103.482 9.78 103.348 9.2 103.082 8.72C102.815 8.22667 102.455 7.85333 102.002 7.6C101.548 7.33333 101.062 7.2 100.542 7.2C100.022 7.2 99.5416 7.32667 99.1016 7.58C98.6616 7.83333 98.3016 8.20667 98.0216 8.7C97.7549 9.18 97.6216 9.75333 97.6216 10.42C97.6216 11.0867 97.7549 11.6733 98.0216 12.18C98.3016 12.6733 98.6616 13.0533 99.1016 13.32C99.5549 13.5867 100.035 13.72 100.542 13.72C101.062 13.72 101.548 13.5933 102.002 13.34C102.455 13.0733 102.815 12.7 103.082 12.22C103.348 11.7267 103.482 11.14 103.482 10.46ZM122.796 4.76C124.156 4.76 125.25 5.18 126.076 6.02C126.916 6.84667 127.336 8.00667 127.336 9.5V16H124.536V9.88C124.536 9.01333 124.316 8.35333 123.876 7.9C123.436 7.43333 122.836 7.2 122.076 7.2C121.316 7.2 120.71 7.43333 120.256 7.9C119.816 8.35333 119.596 9.01333 119.596 9.88V16H116.796V9.88C116.796 9.01333 116.576 8.35333 116.136 7.9C115.696 7.43333 115.096 7.2 114.336 7.2C113.563 7.2 112.95 7.43333 112.496 7.9C112.056 8.35333 111.836 9.01333 111.836 9.88V16H109.036V4.92H111.836V6.26C112.196 5.79333 112.656 5.42667 113.216 5.16C113.79 4.89333 114.416 4.76 115.096 4.76C115.963 4.76 116.736 4.94667 117.416 5.32C118.096 5.68 118.623 6.2 118.996 6.88C119.356 6.24 119.876 5.72667 120.556 5.34C121.25 4.95333 121.996 4.76 122.796 4.76ZM140.293 10.22C140.293 10.62 140.267 10.98 140.213 11.3H132.113C132.18 12.1 132.46 12.7267 132.953 13.18C133.447 13.6333 134.053 13.86 134.773 13.86C135.813 13.86 136.553 13.4133 136.993 12.52H140.013C139.693 13.5867 139.08 14.4667 138.173 15.16C137.267 15.84 136.153 16.18 134.833 16.18C133.767 16.18 132.807 15.9467 131.953 15.48C131.113 15 130.453 14.3267 129.973 13.46C129.507 12.5933 129.273 11.5933 129.273 10.46C129.273 9.31333 129.507 8.30667 129.973 7.44C130.44 6.57333 131.093 5.90667 131.933 5.44C132.773 4.97333 133.74 4.74 134.833 4.74C135.887 4.74 136.827 4.96667 137.653 5.42C138.493 5.87333 139.14 6.52 139.593 7.36C140.06 8.18667 140.293 9.14 140.293 10.22ZM137.393 9.42C137.38 8.7 137.12 8.12667 136.613 7.7C136.107 7.26 135.487 7.04 134.753 7.04C134.06 7.04 133.473 7.25333 132.993 7.68C132.527 8.09333 132.24 8.67333 132.133 9.42H137.393Z" fill="white"/>
</svg>
